<?xml version="1.0" encoding="utf-8"?>
<!-- Generator: Adobe Illustrator 19.2.1, SVG Export Plug-In . SVG Version: 6.00 Build 0)  -->
<svg version="1.1" xmlns="http://www.w3.org/2000/svg" xmlns:xlink="http://www.w3.org/1999/xlink" x="0px" y="0px"
	 viewBox="0 0 162.1 57.1" style="enable-background:new 0 0 162.1 57.1;" xml:space="preserve">
<style type="text/css">
	.st0{fill:#D7D4D3;}
	.st1{fill:#C2BEBD;}
	.st2{fill:#D1CECC;}
	.st3{fill:#E1DEDE;}
	.st4{fill:#245C80;}
	.st5{fill:#FFFFFF;}
	.st6{fill:#FEFEFE;}
	.st7{clip-path:url(#SVGID_2_);fill:url(#SVGID_3_);}
	.st8{clip-path:url(#SVGID_5_);fill:url(#SVGID_6_);}
	.st9{clip-path:url(#SVGID_8_);fill:url(#SVGID_9_);}
	.st10{clip-path:url(#SVGID_11_);fill:url(#SVGID_12_);}
	.st11{fill:#FAF9F9;}
	.st12{fill:#FAFAFA;}
	.st13{clip-path:url(#SVGID_14_);fill:url(#SVGID_15_);}
	.st14{clip-path:url(#SVGID_17_);fill:url(#SVGID_18_);}
	.st15{clip-path:url(#SVGID_20_);fill:url(#SVGID_21_);}
	.st16{clip-path:url(#SVGID_23_);fill:url(#SVGID_24_);}
</style>
<g id="Layer_2">
</g>
<g id="Layer_1">
	<g>
		<path class="st0" d="M155.2,0.1C155.2,0,155.2,0,155.2,0.1c0-0.1,0.1-0.1,0.1-0.1c0,0,0,0,0,0.1C155.3,0.1,155.2,0.1,155.2,0.1z"
			/>
		<path class="st1" d="M7,0C7,0,7,0,7,0C6.9,0.1,6.9,0.1,6.8,0.1c0,0,0,0,0-0.1C6.9,0,7,0,7,0z"/>
		<path class="st4" d="M155.3,57.1c0,0-0.1,0-0.1,0c-0.2,0-0.4,0-0.6,0c-49.1,0-98.1,0-147.2,0c-0.1,0-0.3,0-0.4,0c0,0-0.1,0-0.1,0
			c-3.4-0.3-6.1-2.9-6.7-6.2C0,50.4,0,50,0,49.5C0,35.6,0,21.6,0,7.7c0-3.6,2.5-6.8,6.2-7.5c0.2,0,0.5-0.1,0.7-0.1c0,0,0.1,0,0.1,0
			c0.1,0,0.2,0,0.3,0c49,0,98.1,0,147.1,0c0.2,0,0.5,0,0.7,0c0,0,0.1,0,0.1,0c2.6,0.4,4.6,1.7,5.9,4c0.6,1.1,0.9,2.2,0.9,3.4
			c0,14,0,28.1,0,42.1c0,3.1-2.2,6.4-5.9,7.3C155.9,57,155.6,57.1,155.3,57.1z"/>
		<path class="st5" d="M36.9,48.5c-0.9,0-1.7-0.2-2.6-0.5c-0.8-0.3-1.6-0.6-2.5-0.9c-1.4-0.3-2.7-0.2-4.1,0.2
			c-0.6,0.2-1.1,0.4-1.6,0.6c-0.6,0.2-1.2,0.4-1.9,0.6c-1.2,0.2-2.3,0-3.3-0.6c-0.9-0.6-1.6-1.3-2.2-2.1c-1.3-1.6-2.4-3.2-3.3-5
			c-0.8-1.6-1.5-3.3-1.9-5.1c-0.3-1.3-0.6-2.6-0.7-3.9c-0.1-1.2-0.1-2.5,0-3.7c0.1-1.6,0.5-3.2,1.3-4.7c1.3-2.6,3.2-4.4,5.9-5.4
			c0.8-0.3,1.7-0.4,2.5-0.5c1.1-0.1,2.1,0.2,3.1,0.5c1,0.3,1.9,0.7,2.8,1c0.3,0.1,0.6,0.2,0.8,0.2c0.3,0.1,0.5,0.1,0.8,0
			c1-0.3,2-0.6,3-1c1.1-0.4,2.2-0.7,3.4-0.8c0.7-0.1,1.5,0,2.2,0.1c1.8,0.3,3.4,0.9,4.8,2.1c0.6,0.5,1.1,1.1,1.6,1.7
			c0.1,0.2,0.1,0.2-0.1,0.3c-0.6,0.4-1.2,0.9-1.8,1.4c-1.4,1.4-2.2,3.1-2.4,5c-0.2,1.7,0,3.4,0.7,5c0.3,0.8,0.8,1.5,1.3,2.1
			c0.9,1,1.9,1.8,3.1,2.4c0.2,0.1,0.2,0.2,0.2,0.4c-0.6,1.8-1.5,3.6-2.5,5.2c-0.7,1.1-1.5,2.1-2.3,3.1c-0.6,0.7-1.3,1.3-2.2,1.8
			C38.3,48.3,37.6,48.5,36.9,48.5z"/>
		<path class="st5" d="M73.5,33.2c0.1,0,0.1-0.1,0.2-0.2c1.6-2.4,5.6-2.6,7.3,0.3c0.7,1.2,0.9,2.5,0.8,3.9c-0.1,0.8-0.2,1.6-0.6,2.3
			c-1.2,2.7-4,3.2-5.8,2.5c-0.7-0.3-1.3-0.7-1.8-1.4c-0.1,0.1-0.1,0.2-0.1,0.3c0,1.7,0,3.4,0,5c0,0.1,0,0.2,0,0.3
			c0,0.1-0.1,0.1-0.2,0.1c-0.5,0-1.1,0-1.6,0c-0.1,0-0.2-0.1-0.2-0.2c0-0.1,0-0.2,0-0.3c0-3.8,0-7.7,0-11.5c0-0.9,0-1.8-0.1-2.7
			c0-0.3,0-0.3,0.3-0.3c0.4,0,0.8,0,1.2,0c0.2,0,0.2,0,0.2,0.2c0,0.5,0,1,0.1,1.4C73.5,33.2,73.5,33.2,73.5,33.2z"/>
		<path class="st5" d="M85.9,31.5c0.1,0.6,0.1,1.2,0.1,1.8c0.1,0,0.1,0,0.2-0.1c1-1.5,2.4-2,4.1-1.9c1.7,0.2,2.9,1.2,3.6,2.7
			c0.5,1,0.6,2.1,0.5,3.3c-0.1,0.8-0.2,1.6-0.6,2.3c-1.2,2.6-3.9,3.2-5.8,2.5c-0.7-0.2-1.1-0.6-1.7-1.4c-0.1,0.1,0,0.2,0,0.4
			c0,1.7,0,3.4,0,5c0,0.1,0,0.2,0,0.3c0,0.1,0,0.1-0.1,0.1c-0.6,0-1.1,0-1.7,0c-0.1,0-0.1-0.1-0.1-0.1c0-0.1,0-0.2,0-0.3
			c0-3.8,0-7.7,0-11.5c0-0.9,0-1.9-0.1-2.8c0-0.3,0-0.3,0.3-0.3C84.9,31.5,85.4,31.5,85.9,31.5z"/>
		<path class="st5" d="M69.6,42.1c-0.6,0-1.2,0-1.8,0c-0.2,0-0.2-0.1-0.3-0.2c-0.3-0.8-0.6-1.7-0.9-2.5c-0.2-0.6-0.4-1.1-0.6-1.7
			c-0.1-0.2-0.2-0.2-0.3-0.2c-1.6,0-3.2,0-4.8,0c-0.2,0-0.3,0.1-0.4,0.3c-0.4,1.4-0.9,2.7-1.3,4.1c-0.1,0.3-0.1,0.3-0.4,0.3
			c-0.5,0-1.1,0-1.6,0c-0.1-0.1,0-0.2,0.1-0.4c1.4-4.1,2.8-8.3,4.2-12.4c0.2-0.6,0.4-1.2,0.6-1.8c0.1-0.2,0.1-0.2,0.3-0.2
			c0.6,0,1.2,0,1.8,0c0.3,0,0.3,0,0.4,0.3c0.9,2.6,1.8,5.2,2.7,7.8c0.7,2.2,1.5,4.4,2.2,6.5C69.6,41.9,69.6,42,69.6,42.1z"/>
		<path class="st5" d="M108.7,29.3c-0.5-0.2-1-0.4-1.5-0.5c-0.8-0.2-1.5-0.2-2.3,0c-0.9,0.2-1.6,0.7-1.8,1.7c-0.2,0.7,0,1.4,0.5,1.9
			c0.3,0.3,0.6,0.5,1,0.7c0.5,0.3,1,0.5,1.5,0.7c0.7,0.3,1.4,0.6,2,1c0.9,0.6,1.5,1.4,1.7,2.5c0.3,2.2-0.8,4-2.9,4.7
			c-1.1,0.4-2.2,0.4-3.4,0.3c-0.7-0.1-1.5-0.3-2.2-0.6c-0.1,0-0.2-0.1-0.2-0.1c-0.3-0.2-0.3-0.2-0.2-0.5c0.1-0.4,0.3-0.8,0.4-1.3
			c0.5,0.2,0.9,0.5,1.4,0.6c1.1,0.3,2.2,0.5,3.3,0.2c0.9-0.3,1.6-0.8,1.8-1.8c0.2-1-0.1-1.9-0.9-2.5c-0.6-0.5-1.3-0.7-2-1
			c-0.6-0.2-1.1-0.4-1.6-0.7c-0.3-0.2-0.5-0.3-0.8-0.5c-2.1-1.6-1.8-4.6,0.1-6c0.6-0.5,1.4-0.7,2.1-0.9c1.3-0.2,2.5-0.1,3.8,0.3
			c0.6,0.2,0.6,0.2,0.4,0.9C108.9,28.7,108.8,29,108.7,29.3z"/>
		<path class="st5" d="M123.8,42.3c-2.6,0-4.5-1.7-5-4.2c-0.2-1.4-0.1-2.7,0.5-4c0.8-1.6,2.1-2.6,3.9-2.8c0.9-0.1,1.7-0.1,2.5,0.2
			c1.5,0.5,2.5,1.5,3,2.9c0.6,1.6,0.6,3.2,0,4.7c-0.7,1.7-2,2.7-3.7,3.1c-0.2,0-0.3,0.1-0.5,0.1C124.3,42.3,124.1,42.3,123.8,42.3z"
			/>
		<path class="st5" d="M146.3,40.3c0.1,0.4,0.2,0.8,0.3,1.2c0.1,0.2,0,0.2-0.2,0.3c-0.5,0.2-1,0.3-1.5,0.4c-1,0.2-2,0.2-2.9,0.1
			c-2.1-0.4-3.5-1.6-4-3.7c-0.4-1.6-0.2-3.2,0.6-4.8c1.2-2.3,3.8-2.9,5.8-2.3c1.2,0.4,1.9,1.2,2.4,2.4c0.4,0.9,0.5,1.9,0.4,2.9
			c0,0.4,0,0.4-0.4,0.4c-2.3,0-4.5,0-6.8,0c-0.4,0-0.4,0-0.3,0.4c0,0.5,0.1,0.9,0.3,1.3c0.4,1.1,1.3,1.7,2.4,1.9
			c1.2,0.2,2.4,0.1,3.6-0.3C146.1,40.4,146.1,40.4,146.3,40.3z"/>
		<path class="st5" d="M29.3,16.9c-0.1-0.4-0.1-0.8-0.1-1.2c0-0.5,0.1-1.1,0.3-1.6c0.4-1.3,1-2.4,1.8-3.4c1.4-1.7,3.1-2.6,5.2-3.1
			c0.3-0.1,0.5-0.1,0.8-0.1c0.2,0,0.2,0.1,0.2,0.2c0.1,1.5-0.2,2.8-0.8,4.2c-0.5,1.1-1.2,2-2,2.9c-1,1.1-2.3,1.8-3.7,2.1
			C30.5,17,29.9,17,29.3,16.9z"/>
		<path class="st5" d="M117.2,40.6c0.1,0.4,0.1,0.9,0.1,1.3c0,0.1,0,0.2-0.2,0.2c-1,0.2-1.9,0.3-2.9-0.1c-0.9-0.4-1.2-1.1-1.4-2
			c-0.1-0.4-0.1-0.8-0.1-1.2c0-1.8,0-3.7,0-5.5c0-0.1,0-0.2,0-0.3c0-0.1-0.1-0.2-0.2-0.2c-0.4,0-0.8,0-1.3,0c-0.2,0-0.2-0.1-0.2-0.2
			c0-0.3,0-0.7,0-1c0-0.2,0-0.2,0.2-0.2c0.4,0,0.8,0,1.2,0c0.2,0,0.3-0.1,0.3-0.2c0-0.7,0-1.4,0-2.1c0-0.2,0.1-0.3,0.2-0.3
			c0.5-0.1,0.9-0.2,1.4-0.4c0.1,0,0.1,0,0.2,0c0,0.2,0,0.4,0,0.7c0,0.7,0,1.4,0,2.1c0,0.3,0,0.3,0.3,0.3c0.7,0,1.5,0,2.2,0
			c0.3,0,0.3,0,0.3,0.3c0,0.3,0,0.7,0,1c0,0.2-0.1,0.2-0.2,0.2c-0.7,0-1.4,0-2.1,0c-0.1,0-0.2,0-0.3,0c-0.1,0-0.2,0-0.2,0.2
			c0,0.1,0,0.1,0,0.2c0,1.8,0,3.5,0,5.3c0,0.4,0,0.8,0.1,1.2c0.2,0.6,0.6,0.9,1.3,0.9C116.4,40.8,116.8,40.7,117.2,40.6z"/>
		<path class="st5" d="M55.6,17.6c0-1.4,0-2.8,0-4.2c0-0.3,0-0.3,0.3-0.4c1.3-0.2,2.7-0.3,4,0c1.9,0.4,3,1.6,3.3,3.5
			c0.1,0.8,0.1,1.6-0.1,2.3c-0.4,1.6-1.5,2.7-3.1,3.1c-1,0.3-2.1,0.3-3.1,0.2c-0.3,0-0.7,0-1-0.1c-0.2,0-0.2-0.1-0.2-0.2
			c0-0.1,0-0.1,0-0.2C55.6,20.3,55.6,18.9,55.6,17.6z"/>
		<path class="st5" d="M133.3,33.6c0.1-0.1,0.2-0.3,0.2-0.4c0.5-1,1.2-1.7,2.4-1.9c0.3-0.1,0.5,0,0.8,0c0.1,0,0.2,0,0.2,0.2
			c0,0.6,0,1.1,0,1.6c-0.2,0-0.4,0-0.6,0c-0.9,0-1.6,0.4-2.1,1.1c-0.5,0.7-0.6,1.5-0.6,2.3c0,1.3,0,2.6,0,4c0,0.5,0,1,0,1.4
			c0,0.1,0,0.2-0.2,0.2c-0.6,0-1.1,0-1.7,0c-0.1-0.1,0-0.3,0-0.4c0-2.6,0-5.1,0-7.7c0-0.8,0-1.5-0.1-2.3c0-0.3,0-0.3,0.2-0.3
			c0.4,0,0.8,0,1.2,0c0.3,0,0.3,0,0.3,0.3c0,0.6,0,1.1,0.1,1.7C133.3,33.4,133.3,33.5,133.3,33.6z"/>
		<path class="st5" d="M73.5,21c0.1-0.1,0.1-0.3,0.2-0.4c0.4-1.6,1-3.2,1.5-4.8c0.1-0.2,0.1-0.2,0.3-0.2c0.2,0,0.4,0,0.6,0
			c0.2,0,0.3,0.1,0.3,0.2c0.5,1.7,1.1,3.4,1.5,5.1c0,0,0,0.1,0,0.1c0,0,0.1-0.1,0.1-0.1c0.2-1.3,0.6-2.5,1-3.8
			c0.1-0.4,0.3-0.9,0.4-1.3c0-0.2,0.1-0.2,0.3-0.2c0.3,0,0.6,0,1,0c-0.2,0.5-0.3,0.9-0.4,1.4c-0.5,1.7-1.1,3.3-1.6,5
			c-0.1,0.2-0.1,0.3-0.4,0.3c-0.2,0-0.4,0-0.6,0c-0.2,0-0.2-0.1-0.3-0.2c-0.5-1.7-1.1-3.3-1.5-5c0,0,0,0,0-0.1
			c-0.1,0.1-0.1,0.2-0.1,0.3c-0.3,1.3-0.8,2.5-1.2,3.8c-0.1,0.3-0.2,0.6-0.3,1c0,0.2-0.1,0.2-0.3,0.2c-0.2,0-0.4,0-0.7,0
			c-0.2,0-0.2,0-0.3-0.2c-0.6-2.1-1.3-4.2-1.9-6.4c0,0,0,0,0-0.1c0.3,0,0.7,0,1,0c0.2,0,0.2,0.1,0.2,0.2c0.2,0.9,0.5,1.8,0.7,2.7
			C73.1,19.3,73.3,20.1,73.5,21z"/>
		<path class="st5" d="M109.9,21c-0.1,0.1-0.1,0.1-0.1,0.1c-0.8,1.4-3.2,1.6-4.3,0.1c-0.3-0.4-0.5-0.9-0.6-1.4
			c-0.2-0.9-0.1-1.8,0.3-2.7c0.6-1.4,2.1-2.1,3.5-1.7c0.5,0.1,0.7,0.3,1.2,0.8c0.1-0.1,0.1-0.2,0.1-0.2c0-1.1,0-2.2,0-3.3
			c0-0.4-0.1-0.4,0.4-0.4c0.2,0,0.4,0,0.6,0c0.2,0,0.2,0.1,0.2,0.2c0,0.5,0,1,0,1.5c0,2.2,0,4.4,0,6.6c0,0.4,0,0.8,0,1.2
			c0,0.2,0,0.3-0.2,0.2c-0.2,0-0.4,0-0.7,0c-0.2,0-0.2-0.1-0.2-0.2C110,21.6,110,21.4,109.9,21z"/>
		<path class="st5" d="M139.2,16.5c0.1-0.1,0.2-0.2,0.3-0.3c0.7-0.7,1.5-1,2.4-0.8c0.9,0.2,1.6,1,1.8,2c0,0.3,0.1,0.5,0.1,0.8
			c0,1.2,0,2.4,0,3.6c0,0.3,0.1,0.4-0.4,0.4c-0.2,0-0.4,0-0.7,0c-0.1,0-0.2,0-0.2-0.2c0-0.1,0-0.2,0-0.3c0-1.2,0-2.5,0-3.7
			c0-0.2,0-0.3-0.1-0.5c-0.2-1-1.1-1.4-2.1-1c-0.7,0.3-1.1,0.8-1.1,1.6c0,1.2,0,2.5,0,3.7c0,0.1,0,0.2,0,0.3c0,0.1,0,0.2-0.1,0.2
			c-0.3,0-0.6,0-0.9,0c-0.1,0-0.1-0.1-0.1-0.1c0-0.1,0-0.2,0-0.3c0-3,0-6,0-9c0,0,0-0.1,0-0.1c0-0.2,0.1-0.3,0.3-0.2
			c0.2,0,0.4,0,0.6,0c0.4,0,0.4,0,0.4,0.3c0,1.1,0,2.3,0,3.4C139.2,16.2,139.2,16.3,139.2,16.5z"/>
		<path class="st5" d="M64,18.9c0-0.5,0.1-1.1,0.3-1.5c0.5-1.1,1.3-1.8,2.6-1.9c0.5-0.1,1,0,1.5,0.1c1.2,0.4,1.9,1.3,2.1,2.6
			c0.1,0.6,0.1,1.1-0.1,1.7c-0.3,1.3-1.2,2.1-2.5,2.4c-1.3,0.3-2.7-0.2-3.4-1.3C64.2,20.3,64,19.6,64,18.9z"/>
		<path class="st5" d="M97.7,18.9c0,0.3,0,0.6-0.1,1c-0.4,1.6-1.8,2.5-3.5,2.4c-1.4-0.1-2.4-0.9-2.8-2.3c-0.3-1-0.2-2,0.2-2.9
			c0.5-1,1.3-1.6,2.4-1.7c0.5-0.1,1-0.1,1.5,0.1c1.1,0.4,1.8,1.2,2.1,2.3C97.7,18.1,97.7,18.5,97.7,18.9z"/>
		<path class="st5" d="M122,18.8c0,0.4,0,0.9-0.2,1.3c-0.4,1.4-1.6,2.2-3.1,2.2c-1.7,0-3-1.1-3.2-2.8c-0.1-0.8,0-1.5,0.3-2.2
			c0.5-1.1,1.3-1.7,2.5-1.8c0.5-0.1,1,0,1.5,0.1c1.2,0.4,1.8,1.2,2.1,2.4C122,18.2,122,18.5,122,18.8z"/>
		<path class="st5" d="M103.7,22.1c-0.3,0-0.6,0-0.9,0c-0.1,0-0.2-0.1-0.2-0.2c0-0.2,0-0.4-0.1-0.6c-0.1,0-0.2,0.1-0.3,0.2
			c-0.7,0.7-1.6,0.9-2.5,0.6c-1.6-0.4-1.8-2.3-0.8-3.3c0.5-0.5,1.1-0.7,1.7-0.9c0.5-0.1,1-0.2,1.5-0.2c0.2,0,0.2-0.1,0.2-0.2
			c-0.1-0.9-0.5-1.4-1.3-1.4c-0.7,0-1.3,0.1-1.9,0.4c-0.1-0.1-0.1-0.2-0.1-0.3c-0.2-0.5-0.2-0.5,0.3-0.7c0.8-0.3,1.6-0.4,2.4-0.3
			c1,0.2,1.7,0.9,1.8,1.9c0,0.3,0.1,0.6,0.1,0.9c0,1.1,0,2.1,0,3.2C103.7,21.6,103.7,21.9,103.7,22.1z"/>
		<path class="st5" d="M81.4,15.5c0.3-0.1,0.6,0,0.9,0c0.1,0,0.2,0,0.2,0.1c0,0.2,0,0.3,0,0.5c0,0.1,0,0.3,0,0.4
			c0.1,0,0.1-0.1,0.2-0.1c0.7-0.9,1.6-1.2,2.6-0.9c0.9,0.2,1.6,1,1.7,2c0,0.3,0.1,0.6,0.1,0.8c0,1.2,0,2.4,0,3.6
			c0,0.3,0,0.3-0.3,0.3c-0.2,0-0.4,0-0.7,0c-0.3,0-0.3,0-0.3-0.3c0-0.9,0-1.8,0-2.7c0-0.4,0-0.9,0-1.3c0-0.1,0-0.3-0.1-0.4
			c-0.3-1.1-1.3-1.5-2.2-1c-0.6,0.3-0.9,0.9-0.9,1.6c0,1.2,0,2.4,0,3.6c0,0.1,0,0.2,0,0.3c0,0.1,0,0.2-0.2,0.2c-0.3,0-0.6,0-0.8,0
			c-0.1,0-0.2-0.1-0.2-0.2c0,0,0-0.1,0-0.1c0-2.1,0-4.1-0.1-6.2C81.4,15.6,81.4,15.6,81.4,15.5z"/>
		<path class="st5" d="M150.1,21c0.1,0.2,0.1,0.4,0.2,0.6c0,0.1,0,0.2-0.1,0.3c-0.3,0.1-0.7,0.2-1,0.3c-0.7,0.1-1.3,0.1-2,0
			c-1.1-0.3-1.8-0.9-2.2-2c-0.3-1-0.3-2.1,0.2-3.1c0.7-1.6,2.3-2,3.6-1.6c0.9,0.2,1.4,0.9,1.7,1.7c0.2,0.5,0.2,1,0.2,1.5
			c0,0.3,0,0.3-0.3,0.3c-1.3,0-2.7,0-4,0c-0.5,0-0.5,0-0.4,0.5c0.1,1.1,0.9,1.8,2.1,1.9c0.6,0,1.2,0,1.8-0.3
			C150,21.1,150,21.1,150.1,21z"/>
		<path class="st5" d="M124.4,16.6c0.1-0.1,0.1-0.2,0.1-0.2c0.6-0.8,1.7-1.2,2.7-1c0.7,0.2,1.2,0.6,1.5,1.3c0.2,0.4,0.2,0.8,0.2,1.2
			c0,1.3,0,2.6,0,3.9c0,0.3,0,0.3-0.3,0.3c-0.2,0-0.5,0-0.7,0c-0.2,0-0.2-0.1-0.2-0.2c0-0.1,0-0.1,0-0.2c0-1.1,0-2.1,0-3.2
			c0-0.3,0-0.6-0.1-0.9c-0.2-1.2-1.5-1.7-2.5-1c-0.5,0.4-0.7,0.9-0.7,1.6c0,1.1,0,2.3,0,3.4c0,0.1,0,0.1,0,0.2c0,0.2,0,0.2-0.2,0.2
			c-0.3,0-0.5,0-0.8,0c-0.1,0-0.2,0-0.2-0.1c0-0.1,0-0.2,0-0.3c0-1.9,0-3.7,0-5.6c0,0,0-0.1,0-0.1c0-0.2-0.1-0.4,0-0.5
			c0.1-0.1,0.3-0.1,0.5-0.1c0.6,0,0.5-0.1,0.5,0.5C124.3,16.2,124.3,16.3,124.4,16.6z"/>
		<path class="st5" d="M136.9,21.2c0,0.3,0,0.5,0.1,0.8c0,0.1-0.1,0.1-0.2,0.2c-0.5,0.1-1.1,0.2-1.6,0c-0.5-0.1-0.8-0.5-0.9-0.9
			c-0.1-0.3-0.2-0.7-0.2-1c0-1.1,0-2.3,0-3.4c0-0.1,0-0.2,0-0.3c0-0.1-0.1-0.2-0.2-0.2c-0.2,0-0.4,0-0.7,0c-0.2,0-0.2,0-0.2-0.2
			c0-0.7,0-0.7,0.7-0.7c0.1,0,0.1,0,0.2,0c0.1,0,0.2-0.1,0.2-0.2c0-0.4,0-0.8,0-1.1c0-0.2,0.1-0.3,0.3-0.3c0.3-0.1,0.6-0.2,0.9-0.2
			c0,0.6,0,1.1,0,1.6c0,0.3-0.1,0.3,0.3,0.3c0.4,0,0.8,0,1.2,0c0.2,0,0.2,0,0.2,0.2c0,0.2,0.1,0.5,0,0.6c-0.1,0.2-0.4,0.1-0.6,0.1
			c-0.3,0-0.6,0-0.8,0c-0.1,0-0.2,0-0.2,0.2c0,1.2,0,2.4,0,3.6c0,0.1,0,0.3,0.1,0.4c0.1,0.4,0.4,0.6,0.8,0.6
			C136.4,21.3,136.6,21.3,136.9,21.2z"/>
		<path class="st6" d="M89.9,17.3c0,1.5,0,3,0,4.5c0,0.4,0.1,0.4-0.4,0.4c-0.2,0-0.4,0-0.7,0c-0.1,0-0.2,0-0.2-0.2
			c0-0.1,0-0.1,0-0.2c0-3,0-6,0-9c0-0.1,0-0.1,0-0.2c0-0.2,0.1-0.2,0.2-0.2c0.2,0,0.4,0,0.7,0c0.3,0,0.3,0,0.3,0.3
			c0,0.9,0,1.7,0,2.6C89.9,15.9,89.9,16.6,89.9,17.3z"/>
		<path class="st4" d="M79.9,37c0,0.6-0.1,1.2-0.3,1.7c-0.4,0.9-1,1.7-2,1.9c-1.8,0.5-3.5-0.6-3.8-2.3c0-0.2-0.1-0.4-0.1-0.7
			c0-0.6,0-1.1,0-1.7c0-1.1,0.4-2,1.3-2.6c1.4-1.1,3.3-0.8,4.3,0.7c0.4,0.6,0.6,1.2,0.7,1.9C79.9,36.3,80,36.7,79.9,37z"/>
		<path class="st4" d="M92.5,36.7c0,0.9-0.1,1.6-0.5,2.3c-0.9,2.1-3.4,2.2-4.7,1.1c-0.7-0.6-1.1-1.3-1.1-2.2c0-0.7-0.1-1.5,0-2.2
			c0.1-1.8,1.4-2.8,2.5-3c1.1-0.2,2,0.1,2.8,1c0.5,0.6,0.8,1.3,0.9,2.1C92.4,36.2,92.4,36.5,92.5,36.7z"/>
		<path class="st4" d="M65.6,35.9c-1.5,0-3,0-4.4,0c0,0,2.2-6.9,2.2-7C64,31.4,64.9,33.6,65.6,35.9z"/>
		<path class="st4" d="M127.2,36.8c0,0.9-0.2,1.8-0.7,2.6c-0.5,0.7-1.1,1.3-2,1.5c-1.1,0.2-2-0.1-2.8-0.9c-0.5-0.5-0.8-1.2-0.9-1.9
			c-0.2-1.1-0.2-2.2,0.3-3.3c0.4-0.9,1-1.6,1.9-1.9c1.4-0.4,2.7,0,3.5,1.3C127,35,127.2,35.9,127.2,36.8z"/>
		<path class="st4" d="M142.5,35.8c-0.9,0-1.7,0-2.6,0c-0.2,0-0.3,0-0.2-0.2c0.2-0.8,0.5-1.6,1.1-2.2c1-1,3-0.9,3.9,0.2
			c0.5,0.6,0.6,1.3,0.7,2.1c0,0.1,0,0.2-0.1,0.2c-0.1,0-0.3,0-0.4,0C144.1,35.8,143.3,35.8,142.5,35.8z"/>
		<path class="st4" d="M56.8,17.5c0-1.1,0-2.3,0-3.4c0-0.2,0.1-0.3,0.3-0.3c0.9-0.1,1.8-0.1,2.6,0.1c1.3,0.4,2,1.2,2.2,2.5
			c0.1,0.8,0.1,1.7-0.2,2.5c-0.4,1.2-1.3,1.9-2.5,2.2c-0.7,0.2-1.4,0.1-2.2,0.1c-0.3,0-0.3,0-0.3-0.3C56.8,19.8,56.8,18.6,56.8,17.5
			z"/>
		<path class="st4" d="M109.9,18.8c0,0.4,0,0.7-0.1,1c-0.1,0.8-0.7,1.4-1.5,1.5c-0.9,0.1-1.6-0.2-2-1c-0.5-1-0.5-2.1,0.1-3
			c0.4-0.7,1.2-1.1,1.9-0.9c0.8,0.2,1.4,0.7,1.5,1.6C109.9,18.2,109.8,18.5,109.9,18.8z"/>
		<path class="st4" d="M65.3,18.9c0-0.5,0.1-1,0.3-1.5c0.4-0.7,0.9-1.1,1.7-1.1c0.8,0,1.4,0.4,1.7,1.1c0.4,0.9,0.5,1.9,0,2.8
			c-0.4,0.8-1.1,1.3-2,1.2c-0.5-0.1-0.9-0.3-1.2-0.7C65.4,20.1,65.3,19.5,65.3,18.9z"/>
		<path class="st4" d="M92.4,18.8c0-0.5,0.1-1,0.3-1.4c0.4-0.7,0.9-1.1,1.7-1.1c0.8,0,1.3,0.4,1.7,1.1c0.4,0.9,0.5,1.9,0.1,2.8
			c-0.4,0.9-1.1,1.3-2,1.2c-0.6-0.1-1-0.4-1.3-0.8C92.6,20.1,92.4,19.5,92.4,18.8z"/>
		<path class="st4" d="M120.8,18.9c0,0.5-0.1,1-0.4,1.5c-0.8,1.3-2.5,1.4-3.3,0c-0.6-1.1-0.5-2.1,0-3.2c0.7-1.2,2.5-1.3,3.2,0
			C120.7,17.7,120.8,18.3,120.8,18.9z"/>
		<path class="st4" d="M102.5,19.4c0,0.1,0,0.2,0,0.4c0,1.1-1,1.8-2.1,1.6c-0.5-0.1-0.8-0.6-0.8-1.2c0-0.5,0.3-0.9,0.8-1.1
			c0.4-0.2,0.9-0.2,1.4-0.3C102.5,18.7,102.5,18.7,102.5,19.4C102.5,19.4,102.5,19.4,102.5,19.4z"/>
		<path class="st4" d="M147.8,18.2c-0.5,0-1,0-1.5,0c-0.1,0-0.2,0-0.2-0.2c0.1-0.7,0.5-1.5,1.4-1.7c1-0.2,1.9,0.3,2,1.3
			c0.2,0.8,0.2,0.6-0.5,0.6C148.6,18.2,148.2,18.2,147.8,18.2z"/>
	</g>
</g>
</svg>
