<?xml version="1.0" encoding="utf-8"?>
<!-- Generator: Adobe Illustrator 19.2.1, SVG Export Plug-In . SVG Version: 6.00 Build 0)  -->
<svg version="1.1" xmlns="http://www.w3.org/2000/svg" xmlns:xlink="http://www.w3.org/1999/xlink" x="0px" y="0px"
	 viewBox="0 0 162.1 56.9" style="enable-background:new 0 0 162.1 56.9;" xml:space="preserve">
<style type="text/css">
	.st0{fill:#D7D4D3;}
	.st1{fill:#C2BEBD;}
	.st2{fill:#D1CECC;}
	.st3{fill:#E1DEDE;}
	.st4{fill:#245C80;}
	.st5{fill:#FFFFFF;}
	.st6{fill:#FEFEFE;}
	.st7{clip-path:url(#SVGID_2_);fill:url(#SVGID_3_);}
	.st8{clip-path:url(#SVGID_5_);fill:url(#SVGID_6_);}
	.st9{clip-path:url(#SVGID_8_);fill:url(#SVGID_9_);}
	.st10{clip-path:url(#SVGID_11_);fill:url(#SVGID_12_);}
	.st11{fill:#FAF9F9;}
	.st12{fill:#FAFAFA;}
	.st13{clip-path:url(#SVGID_14_);fill:url(#SVGID_15_);}
	.st14{clip-path:url(#SVGID_17_);fill:url(#SVGID_18_);}
	.st15{clip-path:url(#SVGID_20_);fill:url(#SVGID_21_);}
	.st16{clip-path:url(#SVGID_23_);fill:url(#SVGID_24_);}
</style>
<g id="Layer_2">
</g>
<g id="Layer_1">
	<path class="st4" d="M162.1,49.7c0,4-3.2,7.2-7.2,7.2H7.2c-4,0-7.2-3.2-7.2-7.2V7.2C0,3.2,3.2,0,7.2,0H155c4,0,7.2,3.2,7.2,7.2v41
		L162.1,49.7z"/>
	<g>
		<g id="PLAY_1_">
			<g>
				<defs>
					<path id="SVGID_13_" d="M35.1,24.1l-7.3-4.2c0,0-13.3-7.7-14.1-8.1s-1.6-0.2-1.6,0.8c0,1.6,0,16.4,0,16.4s0,16,0,16.8
						c0,0.7,0.6,1,1.2,0.6c0.7-0.4,14.4-8.3,14.4-8.3l7.3-4.2c0,0,6.2-3.6,7-4.1c0.8-0.5,0.7-1.1,0-1.5
						C41.5,27.8,35.1,24.1,35.1,24.1z"/>
				</defs>
				<clipPath id="SVGID_2_">
					<use xlink:href="#SVGID_13_"  style="overflow:visible;"/>
				</clipPath>
				
					<linearGradient id="SVGID_3_" gradientUnits="userSpaceOnUse" x1="-454.274" y1="63.2869" x2="-454.274" y2="60.294" gradientTransform="matrix(12 0 0 -12 5472.5039 770.3716)">
					<stop  offset="0" style="stop-color:#287CB0"/>
					<stop  offset="0.2863" style="stop-color:#4B94B6"/>
					<stop  offset="0.767" style="stop-color:#7ABDBC"/>
					<stop  offset="1" style="stop-color:#8BCABB"/>
				</linearGradient>
				<polygon class="st7" points="12.2,10.9 12.2,28.9 12.2,46.8 30.3,28.9 				"/>
			</g>
			<g>
				<defs>
					<path id="SVGID_16_" d="M35.1,24.1l-7.3-4.2c0,0-13.3-7.7-14.1-8.1s-1.6-0.2-1.6,0.8c0,1.6,0,16.4,0,16.4s0,16,0,16.8
						c0,0.7,0.6,1,1.2,0.6c0.7-0.4,14.4-8.3,14.4-8.3l7.3-4.2c0,0,6.2-3.6,7-4.1c0.8-0.5,0.7-1.1,0-1.5
						C41.5,27.8,35.1,24.1,35.1,24.1z"/>
				</defs>
				<clipPath id="SVGID_5_">
					<use xlink:href="#SVGID_16_"  style="overflow:visible;"/>
				</clipPath>
				
					<linearGradient id="SVGID_6_" gradientUnits="userSpaceOnUse" x1="-455.0286" y1="62.5441" x2="-453.1141" y2="62.5441" gradientTransform="matrix(12 0 0 -12 5472.5039 770.3716)">
					<stop  offset="0" style="stop-color:#5BBAA9"/>
					<stop  offset="1" style="stop-color:#DEE59B"/>
				</linearGradient>
				<polygon class="st8" points="35.1,24.1 27.8,19.8 12.2,10.8 12.2,10.9 30.3,28.9 				"/>
			</g>
			<g>
				<defs>
					<path id="SVGID_19_" d="M35.1,24.1l-7.3-4.2c0,0-13.3-7.7-14.1-8.1s-1.6-0.2-1.6,0.8c0,1.6,0,16.4,0,16.4s0,16,0,16.8
						c0,0.7,0.6,1,1.2,0.6c0.7-0.4,14.4-8.3,14.4-8.3l7.3-4.2c0,0,6.2-3.6,7-4.1c0.8-0.5,0.7-1.1,0-1.5
						C41.5,27.8,35.1,24.1,35.1,24.1z"/>
				</defs>
				<clipPath id="SVGID_8_">
					<use xlink:href="#SVGID_19_"  style="overflow:visible;"/>
				</clipPath>
				
					<linearGradient id="SVGID_9_" gradientUnits="userSpaceOnUse" x1="-454.0713" y1="61.7904" x2="-454.0713" y2="60.2831" gradientTransform="matrix(12 0 0 -12 5472.5039 770.3716)">
					<stop  offset="0" style="stop-color:#E64340"/>
					<stop  offset="0.1668" style="stop-color:#DA4552"/>
					<stop  offset="0.5748" style="stop-color:#B0487A"/>
					<stop  offset="0.8619" style="stop-color:#954A92"/>
					<stop  offset="1" style="stop-color:#884B94"/>
				</linearGradient>
				<polygon class="st9" points="12.2,46.8 12.2,47 27.8,37.9 35.1,33.7 30.3,28.9 				"/>
			</g>
			<g>
				<defs>
					<path id="SVGID_22_" d="M35.1,24.1l-7.3-4.2c0,0-13.3-7.7-14.1-8.1s-1.6-0.2-1.6,0.8c0,1.6,0,16.4,0,16.4s0,16,0,16.8
						c0,0.7,0.6,1,1.2,0.6c0.7-0.4,14.4-8.3,14.4-8.3l7.3-4.2c0,0,6.2-3.6,7-4.1c0.8-0.5,0.7-1.1,0-1.5
						C41.5,27.8,35.1,24.1,35.1,24.1z"/>
				</defs>
				<clipPath id="SVGID_11_">
					<use xlink:href="#SVGID_22_"  style="overflow:visible;"/>
				</clipPath>
				
					<linearGradient id="SVGID_12_" gradientUnits="userSpaceOnUse" x1="-452.9686" y1="62.1924" x2="-452.9686" y2="61.3885" gradientTransform="matrix(12 0 0 -12 5472.5039 770.3716)">
					<stop  offset="0" style="stop-color:#EF877A"/>
					<stop  offset="0.1194" style="stop-color:#F08F7A"/>
					<stop  offset="0.7128" style="stop-color:#F8B778"/>
					<stop  offset="1" style="stop-color:#FBC875"/>
				</linearGradient>
				<polygon class="st10" points="35.1,24.1 30.3,28.9 35.1,33.7 43.5,28.9 				"/>
			</g>
		</g>
		<path class="st11" d="M126.2,35.9c-0.7,0-1.3-0.1-1.9-0.4c-0.6-0.3-1-0.6-1.4-1.2h-0.1c0.1,0.6,0.1,1.2,0.1,1.7v4.3h-1.6V25.3h1.3
			l0.2,1.4h0.1c0.4-0.6,0.9-1,1.4-1.2s1.2-0.4,1.9-0.4c1.4,0,2.5,0.5,3.2,1.4c0.8,0.9,1.1,2.3,1.1,4c0,1.7-0.4,3-1.1,4
			C128.6,35.4,127.5,35.9,126.2,35.9z M125.9,26.4c-1.1,0-1.8,0.3-2.3,0.9c-0.5,0.6-0.7,1.5-0.7,2.8v0.4c0,1.5,0.2,2.5,0.7,3.2
			c0.5,0.6,1.3,0.9,2.4,0.9c0.9,0,1.6-0.4,2.1-1.1c0.5-0.7,0.8-1.7,0.8-3c0-1.3-0.3-2.3-0.8-3C127.6,26.8,126.9,26.4,125.9,26.4z"/>
		<path class="st11" d="M134.2,35.7h-1.6V20.9h1.6V35.7z"/>
		<path class="st11" d="M143.3,35.7l-0.3-1.5h-0.1c-0.5,0.7-1,1.1-1.6,1.3c-0.5,0.2-1.2,0.3-1.9,0.3c-1,0-1.8-0.3-2.4-0.8
			c-0.6-0.5-0.9-1.3-0.9-2.3c0-2.1,1.7-3.2,5.1-3.3l1.8-0.1v-0.6c0-0.8-0.2-1.4-0.5-1.8c-0.4-0.4-0.9-0.6-1.7-0.6
			c-0.9,0-1.9,0.3-3,0.8l-0.5-1.2c0.5-0.3,1.1-0.5,1.7-0.7c0.6-0.2,1.2-0.2,1.8-0.2c1.2,0,2.2,0.3,2.8,0.8c0.6,0.6,0.9,1.4,0.9,2.7
			v7.1L143.3,35.7L143.3,35.7z M139.7,34.6c1,0,1.8-0.3,2.3-0.8c0.6-0.5,0.8-1.3,0.8-2.3v-0.9l-1.6,0.1c-1.3,0-2.2,0.2-2.7,0.6
			c-0.6,0.3-0.8,0.9-0.8,1.6c0,0.6,0.2,1,0.5,1.3C138.6,34.5,139.1,34.6,139.7,34.6z"/>
		<path class="st11" d="M145.4,25.3h1.7l2.3,6c0.5,1.4,0.8,2.3,0.9,2.9h0.1c0.1-0.3,0.3-0.9,0.5-1.7c0.3-0.8,1.1-3.2,2.6-7.2h1.7
			l-4.5,11.9c-0.4,1.2-1,2-1.6,2.5c-0.6,0.5-1.3,0.7-2.2,0.7c-0.5,0-1-0.1-1.4-0.2V39c0.3,0.1,0.7,0.1,1.2,0.1
			c1.1,0,1.9-0.6,2.3-1.8l0.6-1.5L145.4,25.3z"/>
		<path class="st11" d="M96.9,26.2c0.5,0.4,1.6,1.3,1.6,2.9c0,1.6-0.9,2.4-1.8,3.1c-0.3,0.3-0.6,0.6-0.6,1.1c0,0.5,0.3,0.7,0.6,0.9
			l0.8,0.6c1,0.8,1.8,1.6,1.8,3.1c0,2.1-2,4.1-5.7,4.1c-3.2,0-4.7-1.5-4.7-3.1c0-0.8,0.4-1.9,1.7-2.7c1.4-0.8,3.2-0.9,4.2-1
			c-0.3-0.4-0.7-0.8-0.7-1.5c0-0.4,0.1-0.6,0.2-0.9c-0.2,0-0.5,0-0.7,0c-2.3,0-3.6-1.7-3.6-3.4c0-1,0.5-2.1,1.4-2.9
			c1.2-1,2.7-1.2,3.9-1.2h4.5l-1.4,0.8L96.9,26.2L96.9,26.2z M95.3,35.9c-0.2,0-0.3,0-0.5,0c-0.2,0-1.4,0-2.3,0.4
			c-0.5,0.2-1.9,0.7-1.9,2.2c0,1.6,1.5,2.7,3.8,2.7c2.1,0,3.2-1,3.2-2.4C97.7,37.7,97,37.1,95.3,35.9z M96,31.8
			c0.5-0.5,0.5-1.2,0.5-1.6c0-1.6-0.9-4-2.8-4c-0.6,0-1.2,0.3-1.5,0.7c-0.4,0.5-0.5,1-0.5,1.6c0,1.5,0.9,3.9,2.7,3.9
			C95,32.4,95.6,32.1,96,31.8z"/>
		<path class="st11" d="M83.1,35.6c-3.5,0-5.3-2.7-5.3-5.1c0-2.9,2.3-5.3,5.6-5.3c3.2,0,5.2,2.5,5.2,5.1
			C88.7,32.9,86.7,35.6,83.1,35.6z M85.8,33.8c0.5-0.7,0.7-1.6,0.7-2.4c0-1.9-0.9-5.6-3.6-5.6c-0.7,0-1.4,0.3-2,0.7
			c-0.9,0.8-1,1.7-1,2.7c0,2.2,1.1,5.7,3.7,5.7C84.5,34.9,85.3,34.5,85.8,33.8z"/>
		<path class="st11" d="M71.3,35.6c-3.5,0-5.3-2.7-5.3-5.1c0-2.9,2.3-5.3,5.6-5.3c3.2,0,5.2,2.5,5.2,5.1
			C76.8,32.9,74.9,35.6,71.3,35.6z M74,33.8c0.5-0.7,0.7-1.6,0.7-2.4c0-1.9-0.9-5.6-3.6-5.6c-0.7,0-1.4,0.3-2,0.7
			c-0.9,0.8-1,1.7-1,2.7c0,2.2,1.1,5.7,3.7,5.7C72.6,34.9,73.5,34.5,74,33.8z"/>
		<path class="st11" d="M64.3,35.3L61.2,36c-1.3,0.2-2.4,0.4-3.6,0.4c-6.1,0-8.4-4.5-8.4-7.9c0-4.3,3.3-8.2,8.9-8.2
			c1.2,0,2.3,0.2,3.4,0.5c1.6,0.5,2.4,1,2.9,1.4l-1.8,1.7l-0.8,0.2l0.5-0.9c-0.7-0.7-2.1-2.1-4.7-2.1c-3.5,0-6.1,2.6-6.1,6.5
			c0,4.1,3,8,7.8,8c1.4,0,2.1-0.3,2.8-0.5v-3.5l-3.3,0.2l1.8-0.9h4.6l-0.6,0.5c-0.2,0.1-0.2,0.2-0.2,0.4c0,0.2,0,0.8,0,1.1
			L64.3,35.3L64.3,35.3z"/>
		<path class="st11" d="M103.8,34.6c-0.7-0.1-0.9-0.2-0.9-1.1v-0.2V21.2c0,0,0-0.1,0-0.1c0.1-0.8,0.3-0.9,1-1.3h-3.1l-1.6,0.8h1.7v0
			l0,0v12.8V34c0,0.4-0.1,0.5-0.6,1.2h3.9l0.8-0.5C104.5,34.7,104.2,34.7,103.8,34.6z"/>
		<path class="st11" d="M112.7,34.8c-0.2,0.1-0.5,0.3-0.7,0.4c-0.7,0.3-1.5,0.4-2.1,0.4c-0.7,0-1.8,0-2.9-0.8
			c-1.5-1.1-2.2-3-2.2-4.6c0-3.4,2.7-5,5-5c0.8,0,1.6,0.2,2.2,0.6c1.1,0.7,1.4,1.7,1.5,2.2l-5.1,2.1l-1.7,0.1
			c0.5,2.8,2.4,4.4,4.5,4.4c1.1,0,1.9-0.4,2.7-0.8L112.7,34.8z M110.7,28.3c0.4-0.2,0.6-0.3,0.6-0.6c0-0.9-1-1.9-2.2-1.9
			c-0.9,0-2.5,0.7-2.5,3c0,0.4,0,0.8,0.1,1.2L110.7,28.3z"/>
		<path class="st11" d="M114.8,25.3v1.4h-0.2v-1.4h-0.5v-0.1h1.1v0.1H114.8z"/>
		<path class="st11" d="M116.8,26.7v-1.5h0l-0.4,1.5h-0.1l-0.4-1.5h0v1.5h-0.2v-1.6h0.3l0.4,1.3h0l0.4-1.3h0.3v1.6H116.8z"/>
		<path class="st12" d="M53.6,15.9h-1.1c0-0.1-0.1-0.6-0.3-1.3h-1.6c-0.2,0.7-0.3,1.1-0.3,1.3h-1c0-0.1,0.3-0.8,0.8-2.2
			c0.5-1.4,0.8-2.1,0.8-2.3h1.3c0,0.1,0.2,0.9,0.7,2.2S53.6,15.8,53.6,15.9z M52,14c-0.4-1.2-0.6-1.8-0.6-1.9h-0.1
			c0,0.1-0.2,0.7-0.6,1.9H52z"/>
		<path class="st12" d="M57.9,15.9h-0.8c0-0.1-0.3-0.6-0.9-1.5c-0.7-0.9-1-1.6-1.1-1.9H55c0.1,0.5,0.1,0.9,0.1,1.3c0,0.6,0,1.2,0,2
			h-0.8c0-0.7,0.1-1.5,0.1-2.3c0-0.8,0-1.5-0.1-2.1h1c0,0.1,0.3,0.6,0.8,1.4c0.6,0.9,0.9,1.5,1,1.8h0.1c-0.1-0.5-0.1-1-0.1-1.4
			c0-0.6,0-1.2,0-1.9h0.9c0,0.6,0,1.3,0,2.1C57.9,14.5,57.9,15.2,57.9,15.9z"/>
		<path class="st12" d="M62.9,13.6c0,0.6-0.2,1.2-0.6,1.7c-0.4,0.5-1,0.7-1.7,0.7c-0.3,0-0.8,0-1.4,0c0-0.7,0-1.5,0-2.3
			c0-0.8,0-1.5,0-2.1h0.6c0.1,0,0.2,0,0.4,0c0.2,0,0.3,0,0.4,0c0.8,0,1.4,0.2,1.8,0.6C62.7,12.5,62.9,13,62.9,13.6z M62,13.7
			c0-0.4-0.1-0.8-0.4-1.1c-0.3-0.3-0.6-0.4-1.2-0.4c-0.1,0-0.2,0-0.4,0c0,0.5,0,0.9,0,1.4c0,0.5,0,1.1,0,1.6c0.1,0,0.3,0,0.4,0
			c0.5,0,0.8-0.2,1.1-0.5C61.8,14.5,62,14.2,62,13.7z"/>
		<path class="st12" d="M67.4,15.9h-1c-0.3-0.8-0.5-1.3-0.6-1.5c-0.1-0.2-0.4-0.3-0.7-0.3c-0.1,0-0.3,0-0.4,0c0,0.6,0,1.2,0,1.8
			h-0.9c0-0.7,0-1.5,0-2.3c0-0.8,0-1.5,0-2.1h0.6c0.1,0,0.2,0,0.4,0s0.4,0,0.6,0c1,0,1.6,0.4,1.6,1.1c0,0.6-0.3,1-0.9,1.2v0.1
			c0.2,0.1,0.4,0.2,0.6,0.5C66.9,14.6,67.1,15.2,67.4,15.9z M66.2,12.8c0-0.5-0.3-0.7-0.9-0.7c-0.2,0-0.4,0-0.6,0c0,0.4,0,0.8,0,1.4
			c0.1,0,0.2,0,0.3,0C65.8,13.6,66.2,13.3,66.2,12.8z"/>
		<path class="st12" d="M72.3,13.6c0,0.7-0.2,1.3-0.6,1.7c-0.4,0.5-1,0.7-1.6,0.7c-0.6,0-1.1-0.2-1.5-0.6c-0.4-0.4-0.6-1-0.6-1.6
			c0-0.7,0.2-1.3,0.6-1.7c0.4-0.5,1-0.7,1.6-0.7c0.6,0,1.1,0.2,1.5,0.6C72.1,12.5,72.3,13,72.3,13.6z M71.4,13.7
			c0-0.5-0.1-0.9-0.4-1.2c-0.2-0.3-0.5-0.4-0.9-0.4c-0.3,0-0.6,0.1-0.8,0.4c-0.2,0.3-0.3,0.7-0.3,1.1c0,0.5,0.1,0.9,0.4,1.2
			s0.5,0.4,0.9,0.4c0.3,0,0.6-0.1,0.8-0.4C71.3,14.6,71.4,14.2,71.4,13.7z"/>
		<path class="st12" d="M74.2,15.9h-1c0-0.7,0-1.5,0-2.3c0-0.8,0-1.5,0-2.1h1c0,0.6,0,1.3,0,2.1C74.2,14.5,74.2,15.2,74.2,15.9z"/>
		<path class="st12" d="M79.2,13.6c0,0.6-0.2,1.2-0.6,1.7c-0.4,0.5-1,0.7-1.7,0.7c-0.3,0-0.8,0-1.4,0c0-0.7,0-1.5,0-2.3
			c0-0.8,0-1.5,0-2.1H76c0.1,0,0.2,0,0.4,0c0.2,0,0.3,0,0.4,0c0.8,0,1.4,0.2,1.8,0.6C79,12.5,79.2,13,79.2,13.6z M78.2,13.7
			c0-0.4-0.1-0.8-0.4-1.1c-0.3-0.3-0.6-0.4-1.2-0.4c-0.1,0-0.2,0-0.4,0c0,0.5,0,0.9,0,1.4c0,0.5,0,1.1,0,1.6c0.1,0,0.3,0,0.4,0
			c0.5,0,0.8-0.2,1.1-0.5S78.2,14.2,78.2,13.7z"/>
		<path class="st12" d="M85.7,15.9h-1.1c0-0.1-0.1-0.6-0.3-1.3h-1.6c-0.2,0.7-0.3,1.1-0.3,1.3h-1c0-0.1,0.3-0.8,0.8-2.2
			s0.8-2.1,0.8-2.3h1.3c0,0.1,0.2,0.9,0.7,2.2S85.7,15.8,85.7,15.9z M84.1,14c-0.4-1.2-0.6-1.8-0.6-1.9h-0.1c0,0.1-0.2,0.7-0.6,1.9
			H84.1z"/>
		<path class="st12" d="M89.7,12.7c0,0.5-0.2,0.9-0.6,1.2c-0.4,0.3-0.9,0.4-1.5,0.4c-0.1,0-0.2,0-0.2,0c0,0.4,0,1,0,1.7h-1
			c0-0.7,0-1.4,0-2.3c0-0.8,0-1.5,0-2.1H87c0.1,0,0.2,0,0.5,0c0.2,0,0.4,0,0.6,0c0.4,0,0.8,0.1,1.1,0.3C89.5,12,89.7,12.3,89.7,12.7
			z M88.8,12.9c0-0.5-0.3-0.7-1-0.7c-0.2,0-0.3,0-0.5,0.1c0,0.4,0,0.9,0,1.5c0.1,0,0.1,0,0.2,0C88.4,13.6,88.8,13.4,88.8,12.9z"/>
		<path class="st12" d="M93.8,12.7c0,0.5-0.2,0.9-0.6,1.2c-0.4,0.3-0.9,0.4-1.5,0.4c-0.1,0-0.2,0-0.2,0c0,0.4,0,1,0,1.7h-1
			c0-0.7,0-1.4,0-2.3c0-0.8,0-1.5,0-2.1h0.6c0.1,0,0.2,0,0.5,0c0.2,0,0.4,0,0.6,0c0.4,0,0.8,0.1,1.1,0.3
			C93.6,12,93.8,12.3,93.8,12.7z M92.9,12.9c0-0.5-0.3-0.7-1-0.7c-0.2,0-0.3,0-0.5,0.1c0,0.4,0,0.9,0,1.5c0.1,0,0.1,0,0.2,0
			C92.5,13.6,92.9,13.4,92.9,12.9z"/>
		<path class="st12" d="M100.5,13.6c0,0.7-0.2,1.3-0.6,1.7s-1,0.7-1.6,0.7c-0.6,0-1.1-0.2-1.5-0.6c-0.4-0.4-0.6-1-0.6-1.6
			c0-0.7,0.2-1.3,0.6-1.7s1-0.7,1.6-0.7c0.6,0,1.1,0.2,1.5,0.6C100.3,12.5,100.5,13,100.5,13.6z M99.5,13.7c0-0.5-0.1-0.9-0.4-1.2
			c-0.2-0.3-0.5-0.4-0.9-0.4c-0.3,0-0.6,0.1-0.8,0.4c-0.2,0.3-0.3,0.7-0.3,1.1c0,0.5,0.1,0.9,0.4,1.2c0.2,0.3,0.5,0.4,0.9,0.4
			c0.3,0,0.6-0.1,0.8-0.4C99.4,14.6,99.5,14.2,99.5,13.7z"/>
		<path class="st12" d="M105.1,15.9h-0.8c0-0.1-0.3-0.6-0.9-1.5c-0.7-0.9-1-1.6-1.1-1.9h-0.1c0.1,0.5,0.1,0.9,0.1,1.3
			c0,0.6,0,1.2,0,2h-0.8c0-0.7,0.1-1.5,0.1-2.3c0-0.8,0-1.5-0.1-2.1h1c0,0.1,0.3,0.6,0.8,1.4c0.6,0.9,0.9,1.5,1,1.8h0.1
			c-0.1-0.5-0.1-1-0.1-1.4c0-0.6,0-1.2,0-1.9h0.9c0,0.6,0,1.3,0,2.1C105,14.5,105,15.2,105.1,15.9z"/>
	</g>
</g>
</svg>
